<?xml version="1.0" encoding="UTF-8" standalone="no"?>
<svg
   xmlns:dc="http://purl.org/dc/elements/1.1/"
   xmlns:cc="http://creativecommons.org/ns#"
   xmlns:rdf="http://www.w3.org/1999/02/22-rdf-syntax-ns#"
   xmlns:svg="http://www.w3.org/2000/svg"
   xmlns="http://www.w3.org/2000/svg"
   xmlns:sodipodi="http://sodipodi.sourceforge.net/DTD/sodipodi-0.dtd"
   xmlns:inkscape="http://www.inkscape.org/namespaces/inkscape"
   width="128"
   height="128"
   version="1.1"
   id="svg14"
   sodipodi:docname="rosa.svg"
   inkscape:version="0.92.4 5da689c313, 2019-01-14">
  <metadata
     id="metadata20">
    <rdf:RDF>
      <cc:Work
         rdf:about="">
        <dc:format>image/svg+xml</dc:format>
        <dc:type
           rdf:resource="http://purl.org/dc/dcmitype/StillImage" />
        <dc:title></dc:title>
      </cc:Work>
    </rdf:RDF>
  </metadata>
  <defs
     id="defs18" />
  <sodipodi:namedview
     pagecolor="#ffffff"
     bordercolor="#666666"
     borderopacity="1"
     objecttolerance="10"
     gridtolerance="10"
     guidetolerance="10"
     inkscape:pageopacity="0"
     inkscape:pageshadow="2"
     inkscape:window-width="1680"
     inkscape:window-height="972"
     id="namedview16"
     showgrid="false"
     inkscape:zoom="3.6875"
     inkscape:cx="36.573732"
     inkscape:cy="65.212149"
     inkscape:window-x="1360"
     inkscape:window-y="0"
     inkscape:window-maximized="1"
     inkscape:current-layer="svg14" />
  <g
     id="g827"
     transform="matrix(0.75768544,0,0,0.75768544,197.96905,8.1187683)">
    <rect
       inkscape:export-ydpi="200"
       inkscape:export-xdpi="200"
       ry="23.714005"
       y="-7.3713064"
       x="-236.79503"
       height="119.96295"
       width="119.96295"
       id="rect4497-3-6-3-3"
       style="opacity:1;fill:none;fill-opacity:1;fill-rule:evenodd;stroke:#ffffff;stroke-width:5.41889477;stroke-linecap:round;stroke-linejoin:bevel;stroke-miterlimit:4;stroke-dasharray:none;stroke-dashoffset:0;stroke-opacity:1" />
    <path
       inkscape:export-ydpi="200"
       inkscape:export-xdpi="200"
       inkscape:connector-curvature="0"
       id="path4762-5-9-95-1-8-4-8-7-7"
       d="m -168.47213,17.447491 c -3.10356,0.03024 -6.78489,0.168567 -11.29096,0.518136 -19.30231,1.497222 -34.95269,17.013846 -34.1365,37.064088 0.81025,19.886476 16.14988,36.258071 36.04429,36.258071 19.89249,0 36.0525,-16.327677 36.0525,-36.365031 -0.0302,-11.92286 -4.60736,-21.8095 -4.34207,-34.333758 1.5e-4,-0.0076 -1.5e-4,-0.01512 0,-0.02646 0.0302,-0.416882 0.0642,-0.76029 0.0484,-1.118438 -0.0151,-0.385058 -0.12851,-0.974059 -0.63341,-1.381644 -0.50317,-0.407508 -0.99349,-0.402708 -1.34075,-0.394658 -0.34583,0.0076 -0.6672,0.05291 -1.07713,0.09033 -3.91075,0.353386 -7.0577,0.06274 -11.4802,-0.14778 -2.21129,-0.106204 -4.74172,-0.192756 -7.84543,-0.164409 z m 13.1661,5.131578 c -0.53212,0.889663 -1.02565,1.840857 -1.62822,3.215434 -1.20571,2.749152 -2.88185,7.190211 -6.43907,16.521373 -5.24659,13.762016 -13.21803,20.340964 -21.24181,23.733468 -7.32084,3.09532 -14.63418,3.386646 -19.9013,3.330557 -2.28396,-4.334589 -3.6664,-9.287848 -3.8815,-14.572308 -0.69611,-17.099982 12.42033,-30.057752 29.06246,-31.348574 12.39125,-0.961247 18.65348,-0.756246 24.02944,-0.879912 z m 4.81085,2.491767 c 0.60933,11.274596 3.16611,20.811327 3.18251,29.86012 -0.002,17.088303 -13.65789,30.846917 -30.54263,30.846917 -9.3507,0 -17.48311,-4.232504 -23.00969,-10.920983 5.19156,-0.166299 11.73513,-0.913814 18.40441,-3.733568 8.98708,-3.799748 16.61227,-7.793651 22.3191,-22.763074 5.36504,-14.073298 7.58611,-19.5487 9.6463,-23.289412 z"
       style="color:#000000;font-style:normal;font-variant:normal;font-weight:normal;font-stretch:normal;font-size:medium;line-height:normal;font-family:sans-serif;font-variant-ligatures:normal;font-variant-position:normal;font-variant-caps:normal;font-variant-numeric:normal;font-variant-alternates:normal;font-feature-settings:normal;text-indent:0;text-align:start;text-decoration:none;text-decoration-line:none;text-decoration-style:solid;text-decoration-color:#000000;letter-spacing:normal;word-spacing:normal;text-transform:none;writing-mode:lr-tb;direction:ltr;text-orientation:mixed;dominant-baseline:auto;baseline-shift:baseline;text-anchor:start;white-space:normal;shape-padding:0;clip-rule:nonzero;display:inline;overflow:visible;visibility:visible;opacity:1;isolation:auto;mix-blend-mode:normal;color-interpolation:sRGB;color-interpolation-filters:linearRGB;solid-color:#000000;solid-opacity:1;vector-effect:none;fill:#ffffff;fill-opacity:1;fill-rule:nonzero;stroke:none;stroke-width:2.51170993;stroke-linecap:butt;stroke-linejoin:miter;stroke-miterlimit:4;stroke-dasharray:none;stroke-dashoffset:0;stroke-opacity:1;color-rendering:auto;image-rendering:auto;shape-rendering:auto;text-rendering:auto;enable-background:accumulate" />
  </g>
  <text
     xml:space="preserve"
     style="font-style:normal;font-variant:normal;font-weight:normal;font-stretch:normal;font-size:34.83090591px;line-height:1.25;font-family:'Moscow Sans';-inkscape-font-specification:'Moscow Sans';letter-spacing:0px;word-spacing:0px;fill:#ffffff;fill-opacity:1;stroke:none;stroke-width:1"
     x="14.684425"
     y="127.22977"
     id="text821"><tspan
       sodipodi:role="line"
       id="tspan819"
       x="14.684425"
       y="127.22977"
       style="font-style:normal;font-variant:normal;font-weight:normal;font-stretch:normal;font-family:'Moscow Sans';-inkscape-font-specification:'Moscow Sans';stroke-width:1">РОСА</tspan></text>
</svg>
